<mxfile host="Electron" agent="Mozilla/5.0 (Windows NT 10.0; Win64; x64) AppleWebKit/537.36 (KHTML, like Gecko) draw.io/24.7.17 Chrome/128.0.6613.36 Electron/32.0.1 Safari/537.36" version="24.7.17">
  <diagram name="Page-1" id="EYT3RI39jImU8zoZa8g9">
    <mxGraphModel dx="1295" dy="758" grid="1" gridSize="10" guides="1" tooltips="1" connect="1" arrows="1" fold="1" page="1" pageScale="1" pageWidth="850" pageHeight="1100" math="0" shadow="0">
      <root>
        <mxCell id="0" />
        <mxCell id="1" parent="0" />
        <mxCell id="8HSM9Qn1FKHbrYjeSbLH-38" style="edgeStyle=orthogonalEdgeStyle;rounded=0;orthogonalLoop=1;jettySize=auto;html=1;exitX=0.75;exitY=0;exitDx=0;exitDy=0;entryX=0.25;entryY=0;entryDx=0;entryDy=0;labelBackgroundColor=none;strokeColor=#A8201A;fontColor=default;" edge="1" parent="1" source="8HSM9Qn1FKHbrYjeSbLH-5" target="8HSM9Qn1FKHbrYjeSbLH-9">
          <mxGeometry relative="1" as="geometry" />
        </mxCell>
        <mxCell id="8HSM9Qn1FKHbrYjeSbLH-5" value="ReviewService" style="swimlane;fontStyle=0;childLayout=stackLayout;horizontal=1;startSize=26;fillColor=none;horizontalStack=0;resizeParent=1;resizeParentMax=0;resizeLast=0;collapsible=1;marginBottom=0;whiteSpace=wrap;html=1;labelBackgroundColor=none;strokeColor=#0F8B8D;fontColor=#143642;" vertex="1" parent="1">
          <mxGeometry x="270" y="318" width="140" height="120" as="geometry" />
        </mxCell>
        <mxCell id="8HSM9Qn1FKHbrYjeSbLH-6" value="create_review(Data)" style="text;strokeColor=none;fillColor=none;align=left;verticalAlign=top;spacingLeft=4;spacingRight=4;overflow=hidden;rotatable=0;points=[[0,0.5],[1,0.5]];portConstraint=eastwest;whiteSpace=wrap;html=1;labelBackgroundColor=none;fontColor=#143642;" vertex="1" parent="8HSM9Qn1FKHbrYjeSbLH-5">
          <mxGeometry y="26" width="140" height="26" as="geometry" />
        </mxCell>
        <mxCell id="8HSM9Qn1FKHbrYjeSbLH-19" value="" style="line;strokeWidth=1;fillColor=none;align=left;verticalAlign=middle;spacingTop=-1;spacingLeft=3;spacingRight=3;rotatable=0;labelPosition=right;points=[];portConstraint=eastwest;strokeColor=#0F8B8D;labelBackgroundColor=none;fontColor=#143642;" vertex="1" parent="8HSM9Qn1FKHbrYjeSbLH-5">
          <mxGeometry y="52" width="140" height="8" as="geometry" />
        </mxCell>
        <mxCell id="8HSM9Qn1FKHbrYjeSbLH-7" value="get_reviews(shoeID)" style="text;strokeColor=none;fillColor=none;align=left;verticalAlign=top;spacingLeft=4;spacingRight=4;overflow=hidden;rotatable=0;points=[[0,0.5],[1,0.5]];portConstraint=eastwest;whiteSpace=wrap;html=1;labelBackgroundColor=none;fontColor=#143642;" vertex="1" parent="8HSM9Qn1FKHbrYjeSbLH-5">
          <mxGeometry y="60" width="140" height="26" as="geometry" />
        </mxCell>
        <mxCell id="8HSM9Qn1FKHbrYjeSbLH-20" value="" style="line;strokeWidth=1;fillColor=none;align=left;verticalAlign=middle;spacingTop=-1;spacingLeft=3;spacingRight=3;rotatable=0;labelPosition=right;points=[];portConstraint=eastwest;strokeColor=#0F8B8D;labelBackgroundColor=none;fontColor=#143642;" vertex="1" parent="8HSM9Qn1FKHbrYjeSbLH-5">
          <mxGeometry y="86" width="140" height="8" as="geometry" />
        </mxCell>
        <mxCell id="8HSM9Qn1FKHbrYjeSbLH-8" value="&amp;lt;&amp;lt;uses&amp;gt;&amp;gt;ReviewSerializer" style="text;strokeColor=none;fillColor=none;align=left;verticalAlign=top;spacingLeft=4;spacingRight=4;overflow=hidden;rotatable=0;points=[[0,0.5],[1,0.5]];portConstraint=eastwest;whiteSpace=wrap;html=1;labelBackgroundColor=none;fontColor=#143642;" vertex="1" parent="8HSM9Qn1FKHbrYjeSbLH-5">
          <mxGeometry y="94" width="140" height="26" as="geometry" />
        </mxCell>
        <mxCell id="8HSM9Qn1FKHbrYjeSbLH-9" value="ReviewSerializer(DRF)" style="swimlane;fontStyle=0;childLayout=stackLayout;horizontal=1;startSize=26;fillColor=none;horizontalStack=0;resizeParent=1;resizeParentMax=0;resizeLast=0;collapsible=1;marginBottom=0;whiteSpace=wrap;html=1;labelBackgroundColor=none;strokeColor=#0F8B8D;fontColor=#143642;" vertex="1" parent="1">
          <mxGeometry x="460" y="250" width="140" height="188" as="geometry" />
        </mxCell>
        <mxCell id="8HSM9Qn1FKHbrYjeSbLH-10" value="reviewID: integer" style="text;strokeColor=none;fillColor=none;align=left;verticalAlign=top;spacingLeft=4;spacingRight=4;overflow=hidden;rotatable=0;points=[[0,0.5],[1,0.5]];portConstraint=eastwest;whiteSpace=wrap;html=1;labelBackgroundColor=none;fontColor=#143642;" vertex="1" parent="8HSM9Qn1FKHbrYjeSbLH-9">
          <mxGeometry y="26" width="140" height="26" as="geometry" />
        </mxCell>
        <mxCell id="8HSM9Qn1FKHbrYjeSbLH-15" value="" style="line;strokeWidth=1;fillColor=none;align=left;verticalAlign=middle;spacingTop=-1;spacingLeft=3;spacingRight=3;rotatable=0;labelPosition=right;points=[];portConstraint=eastwest;strokeColor=#0F8B8D;labelBackgroundColor=none;fontColor=#143642;" vertex="1" parent="8HSM9Qn1FKHbrYjeSbLH-9">
          <mxGeometry y="52" width="140" height="8" as="geometry" />
        </mxCell>
        <mxCell id="8HSM9Qn1FKHbrYjeSbLH-11" value="userID: integer" style="text;strokeColor=none;fillColor=none;align=left;verticalAlign=top;spacingLeft=4;spacingRight=4;overflow=hidden;rotatable=0;points=[[0,0.5],[1,0.5]];portConstraint=eastwest;whiteSpace=wrap;html=1;labelBackgroundColor=none;fontColor=#143642;" vertex="1" parent="8HSM9Qn1FKHbrYjeSbLH-9">
          <mxGeometry y="60" width="140" height="26" as="geometry" />
        </mxCell>
        <mxCell id="8HSM9Qn1FKHbrYjeSbLH-16" value="" style="line;strokeWidth=1;fillColor=none;align=left;verticalAlign=middle;spacingTop=-1;spacingLeft=3;spacingRight=3;rotatable=0;labelPosition=right;points=[];portConstraint=eastwest;strokeColor=#0F8B8D;labelBackgroundColor=none;fontColor=#143642;" vertex="1" parent="8HSM9Qn1FKHbrYjeSbLH-9">
          <mxGeometry y="86" width="140" height="8" as="geometry" />
        </mxCell>
        <mxCell id="8HSM9Qn1FKHbrYjeSbLH-12" value="shoeID: integer" style="text;strokeColor=none;fillColor=none;align=left;verticalAlign=top;spacingLeft=4;spacingRight=4;overflow=hidden;rotatable=0;points=[[0,0.5],[1,0.5]];portConstraint=eastwest;whiteSpace=wrap;html=1;labelBackgroundColor=none;fontColor=#143642;" vertex="1" parent="8HSM9Qn1FKHbrYjeSbLH-9">
          <mxGeometry y="94" width="140" height="26" as="geometry" />
        </mxCell>
        <mxCell id="8HSM9Qn1FKHbrYjeSbLH-17" value="" style="line;strokeWidth=1;fillColor=none;align=left;verticalAlign=middle;spacingTop=-1;spacingLeft=3;spacingRight=3;rotatable=0;labelPosition=right;points=[];portConstraint=eastwest;strokeColor=#0F8B8D;labelBackgroundColor=none;fontColor=#143642;" vertex="1" parent="8HSM9Qn1FKHbrYjeSbLH-9">
          <mxGeometry y="120" width="140" height="8" as="geometry" />
        </mxCell>
        <mxCell id="8HSM9Qn1FKHbrYjeSbLH-13" value="rating" style="text;strokeColor=none;fillColor=none;align=left;verticalAlign=top;spacingLeft=4;spacingRight=4;overflow=hidden;rotatable=0;points=[[0,0.5],[1,0.5]];portConstraint=eastwest;whiteSpace=wrap;html=1;labelBackgroundColor=none;fontColor=#143642;" vertex="1" parent="8HSM9Qn1FKHbrYjeSbLH-9">
          <mxGeometry y="128" width="140" height="26" as="geometry" />
        </mxCell>
        <mxCell id="8HSM9Qn1FKHbrYjeSbLH-18" value="" style="line;strokeWidth=1;fillColor=none;align=left;verticalAlign=middle;spacingTop=-1;spacingLeft=3;spacingRight=3;rotatable=0;labelPosition=right;points=[];portConstraint=eastwest;strokeColor=#0F8B8D;labelBackgroundColor=none;fontColor=#143642;" vertex="1" parent="8HSM9Qn1FKHbrYjeSbLH-9">
          <mxGeometry y="154" width="140" height="8" as="geometry" />
        </mxCell>
        <mxCell id="8HSM9Qn1FKHbrYjeSbLH-14" value="comment: string" style="text;strokeColor=none;fillColor=none;align=left;verticalAlign=top;spacingLeft=4;spacingRight=4;overflow=hidden;rotatable=0;points=[[0,0.5],[1,0.5]];portConstraint=eastwest;whiteSpace=wrap;html=1;labelBackgroundColor=none;fontColor=#143642;" vertex="1" parent="8HSM9Qn1FKHbrYjeSbLH-9">
          <mxGeometry y="162" width="140" height="26" as="geometry" />
        </mxCell>
        <mxCell id="8HSM9Qn1FKHbrYjeSbLH-39" style="edgeStyle=orthogonalEdgeStyle;rounded=0;orthogonalLoop=1;jettySize=auto;html=1;exitX=0.75;exitY=0;exitDx=0;exitDy=0;entryX=0.25;entryY=0;entryDx=0;entryDy=0;labelBackgroundColor=none;strokeColor=#A8201A;fontColor=default;" edge="1" parent="1" source="8HSM9Qn1FKHbrYjeSbLH-40" target="8HSM9Qn1FKHbrYjeSbLH-46">
          <mxGeometry relative="1" as="geometry" />
        </mxCell>
        <mxCell id="8HSM9Qn1FKHbrYjeSbLH-67" style="edgeStyle=orthogonalEdgeStyle;rounded=0;orthogonalLoop=1;jettySize=auto;html=1;exitX=0.25;exitY=0;exitDx=0;exitDy=0;entryX=0.5;entryY=0;entryDx=0;entryDy=0;labelBackgroundColor=none;strokeColor=#A8201A;fontColor=default;" edge="1" parent="1" source="8HSM9Qn1FKHbrYjeSbLH-40" target="8HSM9Qn1FKHbrYjeSbLH-60">
          <mxGeometry relative="1" as="geometry" />
        </mxCell>
        <mxCell id="8HSM9Qn1FKHbrYjeSbLH-40" value="WishlistService" style="swimlane;fontStyle=0;childLayout=stackLayout;horizontal=1;startSize=26;fillColor=none;horizontalStack=0;resizeParent=1;resizeParentMax=0;resizeLast=0;collapsible=1;marginBottom=0;whiteSpace=wrap;html=1;labelBackgroundColor=none;strokeColor=#0F8B8D;fontColor=#143642;" vertex="1" parent="1">
          <mxGeometry x="310" y="480" width="230" height="158" as="geometry" />
        </mxCell>
        <mxCell id="8HSM9Qn1FKHbrYjeSbLH-41" value="add_to_wishlist(user_id, shoe_id)" style="text;strokeColor=none;fillColor=none;align=left;verticalAlign=top;spacingLeft=4;spacingRight=4;overflow=hidden;rotatable=0;points=[[0,0.5],[1,0.5]];portConstraint=eastwest;whiteSpace=wrap;html=1;labelBackgroundColor=none;fontColor=#143642;" vertex="1" parent="8HSM9Qn1FKHbrYjeSbLH-40">
          <mxGeometry y="26" width="230" height="26" as="geometry" />
        </mxCell>
        <mxCell id="8HSM9Qn1FKHbrYjeSbLH-42" value="" style="line;strokeWidth=1;fillColor=none;align=left;verticalAlign=middle;spacingTop=-1;spacingLeft=3;spacingRight=3;rotatable=0;labelPosition=right;points=[];portConstraint=eastwest;strokeColor=#0F8B8D;labelBackgroundColor=none;fontColor=#143642;" vertex="1" parent="8HSM9Qn1FKHbrYjeSbLH-40">
          <mxGeometry y="52" width="230" height="8" as="geometry" />
        </mxCell>
        <mxCell id="8HSM9Qn1FKHbrYjeSbLH-43" value="remove_from_wishlist(user_id, shoe_id)" style="text;strokeColor=none;fillColor=none;align=left;verticalAlign=top;spacingLeft=4;spacingRight=4;overflow=hidden;rotatable=0;points=[[0,0.5],[1,0.5]];portConstraint=eastwest;whiteSpace=wrap;html=1;labelBackgroundColor=none;fontColor=#143642;" vertex="1" parent="8HSM9Qn1FKHbrYjeSbLH-40">
          <mxGeometry y="60" width="230" height="30" as="geometry" />
        </mxCell>
        <mxCell id="8HSM9Qn1FKHbrYjeSbLH-59" value="" style="line;strokeWidth=1;fillColor=none;align=left;verticalAlign=middle;spacingTop=-1;spacingLeft=3;spacingRight=3;rotatable=0;labelPosition=right;points=[];portConstraint=eastwest;strokeColor=#0F8B8D;labelBackgroundColor=none;fontColor=#143642;" vertex="1" parent="8HSM9Qn1FKHbrYjeSbLH-40">
          <mxGeometry y="90" width="230" height="8" as="geometry" />
        </mxCell>
        <mxCell id="8HSM9Qn1FKHbrYjeSbLH-57" value="get_wishlist_from_user(userID)" style="text;strokeColor=none;fillColor=none;align=left;verticalAlign=top;spacingLeft=4;spacingRight=4;overflow=hidden;rotatable=0;points=[[0,0.5],[1,0.5]];portConstraint=eastwest;whiteSpace=wrap;html=1;labelBackgroundColor=none;fontColor=#143642;" vertex="1" parent="8HSM9Qn1FKHbrYjeSbLH-40">
          <mxGeometry y="98" width="230" height="26" as="geometry" />
        </mxCell>
        <mxCell id="8HSM9Qn1FKHbrYjeSbLH-44" value="" style="line;strokeWidth=1;fillColor=none;align=left;verticalAlign=middle;spacingTop=-1;spacingLeft=3;spacingRight=3;rotatable=0;labelPosition=right;points=[];portConstraint=eastwest;strokeColor=#0F8B8D;labelBackgroundColor=none;fontColor=#143642;" vertex="1" parent="8HSM9Qn1FKHbrYjeSbLH-40">
          <mxGeometry y="124" width="230" height="8" as="geometry" />
        </mxCell>
        <mxCell id="8HSM9Qn1FKHbrYjeSbLH-45" value="&amp;lt;&amp;lt;uses&amp;gt;&amp;gt;WishlistSerializer" style="text;strokeColor=none;fillColor=none;align=left;verticalAlign=top;spacingLeft=4;spacingRight=4;overflow=hidden;rotatable=0;points=[[0,0.5],[1,0.5]];portConstraint=eastwest;whiteSpace=wrap;html=1;labelBackgroundColor=none;fontColor=#143642;" vertex="1" parent="8HSM9Qn1FKHbrYjeSbLH-40">
          <mxGeometry y="132" width="230" height="26" as="geometry" />
        </mxCell>
        <mxCell id="8HSM9Qn1FKHbrYjeSbLH-46" value="WishlistSerializer(DRF)" style="swimlane;fontStyle=0;childLayout=stackLayout;horizontal=1;startSize=26;fillColor=none;horizontalStack=0;resizeParent=1;resizeParentMax=0;resizeLast=0;collapsible=1;marginBottom=0;whiteSpace=wrap;html=1;labelBackgroundColor=none;strokeColor=#0F8B8D;fontColor=#143642;" vertex="1" parent="1">
          <mxGeometry x="580" y="480" width="140" height="128" as="geometry" />
        </mxCell>
        <mxCell id="8HSM9Qn1FKHbrYjeSbLH-47" value="wishlistID: integer" style="text;strokeColor=none;fillColor=none;align=left;verticalAlign=top;spacingLeft=4;spacingRight=4;overflow=hidden;rotatable=0;points=[[0,0.5],[1,0.5]];portConstraint=eastwest;whiteSpace=wrap;html=1;labelBackgroundColor=none;fontColor=#143642;" vertex="1" parent="8HSM9Qn1FKHbrYjeSbLH-46">
          <mxGeometry y="26" width="140" height="26" as="geometry" />
        </mxCell>
        <mxCell id="8HSM9Qn1FKHbrYjeSbLH-48" value="" style="line;strokeWidth=1;fillColor=none;align=left;verticalAlign=middle;spacingTop=-1;spacingLeft=3;spacingRight=3;rotatable=0;labelPosition=right;points=[];portConstraint=eastwest;strokeColor=#0F8B8D;labelBackgroundColor=none;fontColor=#143642;" vertex="1" parent="8HSM9Qn1FKHbrYjeSbLH-46">
          <mxGeometry y="52" width="140" height="8" as="geometry" />
        </mxCell>
        <mxCell id="8HSM9Qn1FKHbrYjeSbLH-49" value="userID: integer" style="text;strokeColor=none;fillColor=none;align=left;verticalAlign=top;spacingLeft=4;spacingRight=4;overflow=hidden;rotatable=0;points=[[0,0.5],[1,0.5]];portConstraint=eastwest;whiteSpace=wrap;html=1;labelBackgroundColor=none;fontColor=#143642;" vertex="1" parent="8HSM9Qn1FKHbrYjeSbLH-46">
          <mxGeometry y="60" width="140" height="26" as="geometry" />
        </mxCell>
        <mxCell id="8HSM9Qn1FKHbrYjeSbLH-50" value="" style="line;strokeWidth=1;fillColor=none;align=left;verticalAlign=middle;spacingTop=-1;spacingLeft=3;spacingRight=3;rotatable=0;labelPosition=right;points=[];portConstraint=eastwest;strokeColor=#0F8B8D;labelBackgroundColor=none;fontColor=#143642;" vertex="1" parent="8HSM9Qn1FKHbrYjeSbLH-46">
          <mxGeometry y="86" width="140" height="8" as="geometry" />
        </mxCell>
        <mxCell id="8HSM9Qn1FKHbrYjeSbLH-51" value="shoeID: integer" style="text;strokeColor=none;fillColor=none;align=left;verticalAlign=top;spacingLeft=4;spacingRight=4;overflow=hidden;rotatable=0;points=[[0,0.5],[1,0.5]];portConstraint=eastwest;whiteSpace=wrap;html=1;labelBackgroundColor=none;fontColor=#143642;" vertex="1" parent="8HSM9Qn1FKHbrYjeSbLH-46">
          <mxGeometry y="94" width="140" height="26" as="geometry" />
        </mxCell>
        <mxCell id="8HSM9Qn1FKHbrYjeSbLH-54" value="" style="line;strokeWidth=1;fillColor=none;align=left;verticalAlign=middle;spacingTop=-1;spacingLeft=3;spacingRight=3;rotatable=0;labelPosition=right;points=[];portConstraint=eastwest;strokeColor=#0F8B8D;labelBackgroundColor=none;fontColor=#143642;" vertex="1" parent="8HSM9Qn1FKHbrYjeSbLH-46">
          <mxGeometry y="120" width="140" height="8" as="geometry" />
        </mxCell>
        <mxCell id="8HSM9Qn1FKHbrYjeSbLH-60" value="Wishlist_ItemSerializer(DRF)" style="swimlane;fontStyle=0;childLayout=stackLayout;horizontal=1;startSize=26;fillColor=none;horizontalStack=0;resizeParent=1;resizeParentMax=0;resizeLast=0;collapsible=1;marginBottom=0;whiteSpace=wrap;html=1;labelBackgroundColor=none;strokeColor=#0F8B8D;fontColor=#143642;" vertex="1" parent="1">
          <mxGeometry x="110" y="480" width="175" height="106" as="geometry" />
        </mxCell>
        <mxCell id="8HSM9Qn1FKHbrYjeSbLH-61" value="wishlistID: integer" style="text;strokeColor=none;fillColor=none;align=left;verticalAlign=top;spacingLeft=4;spacingRight=4;overflow=hidden;rotatable=0;points=[[0,0.5],[1,0.5]];portConstraint=eastwest;whiteSpace=wrap;html=1;labelBackgroundColor=none;fontColor=#143642;" vertex="1" parent="8HSM9Qn1FKHbrYjeSbLH-60">
          <mxGeometry y="26" width="175" height="34" as="geometry" />
        </mxCell>
        <mxCell id="8HSM9Qn1FKHbrYjeSbLH-62" value="" style="line;strokeWidth=1;fillColor=none;align=left;verticalAlign=middle;spacingTop=-1;spacingLeft=3;spacingRight=3;rotatable=0;labelPosition=right;points=[];portConstraint=eastwest;strokeColor=#0F8B8D;labelBackgroundColor=none;fontColor=#143642;" vertex="1" parent="8HSM9Qn1FKHbrYjeSbLH-60">
          <mxGeometry y="60" width="175" height="8" as="geometry" />
        </mxCell>
        <mxCell id="8HSM9Qn1FKHbrYjeSbLH-65" value="shoeID: integer" style="text;strokeColor=none;fillColor=none;align=left;verticalAlign=top;spacingLeft=4;spacingRight=4;overflow=hidden;rotatable=0;points=[[0,0.5],[1,0.5]];portConstraint=eastwest;whiteSpace=wrap;html=1;labelBackgroundColor=none;fontColor=#143642;" vertex="1" parent="8HSM9Qn1FKHbrYjeSbLH-60">
          <mxGeometry y="68" width="175" height="30" as="geometry" />
        </mxCell>
        <mxCell id="8HSM9Qn1FKHbrYjeSbLH-66" value="" style="line;strokeWidth=1;fillColor=none;align=left;verticalAlign=middle;spacingTop=-1;spacingLeft=3;spacingRight=3;rotatable=0;labelPosition=right;points=[];portConstraint=eastwest;strokeColor=#0F8B8D;labelBackgroundColor=none;fontColor=#143642;" vertex="1" parent="8HSM9Qn1FKHbrYjeSbLH-60">
          <mxGeometry y="98" width="175" height="8" as="geometry" />
        </mxCell>
        <mxCell id="8HSM9Qn1FKHbrYjeSbLH-68" value="" style="shape=folder;fontStyle=1;spacingTop=10;tabWidth=130;tabHeight=20;tabPosition=left;html=1;whiteSpace=wrap;fillColor=none;labelBackgroundColor=none;strokeColor=#0F8B8D;fontColor=#143642;" vertex="1" parent="1">
          <mxGeometry x="90" y="200" width="650" height="450" as="geometry" />
        </mxCell>
        <mxCell id="8HSM9Qn1FKHbrYjeSbLH-69" value="Bussiness Logic" style="text;align=center;fontStyle=1;verticalAlign=middle;spacingLeft=3;spacingRight=3;strokeColor=none;rotatable=0;points=[[0,0.5],[1,0.5]];portConstraint=eastwest;html=1;labelBackgroundColor=none;fontColor=#143642;" vertex="1" parent="1">
          <mxGeometry x="110" y="200" width="80" height="26" as="geometry" />
        </mxCell>
      </root>
    </mxGraphModel>
  </diagram>
</mxfile>
